<svg width="125" height="18" viewBox="0 0 125 18" fill="none" xmlns="http://www.w3.org/2000/svg">
<path d="M8.64166 0L8.63572 0.0233202H8.39528C7.25533 0.035579 6.15668 0.428325 5.29349 1.13214C4.37495 1.84145 3.77016 2.70345 3.56195 3.41105H3.55367L0 18L0.202079 17.9969C1.35309 17.9864 2.46292 17.5907 3.33448 16.8801C4.25386 16.2064 4.89973 15.254 5.16346 14.1831L5.94043 11.017L13.0073 11.0191C14.1113 11.0191 15.177 10.6286 16.1411 9.89323C17.0581 9.22446 17.7026 8.27687 17.9656 7.21072L18.0106 7.01888L6.92381 7.01105L7.66225 4.00291L17.2642 3.99015C18.4025 3.97971 19.5005 3.59083 20.3657 2.89171C21.2688 2.21185 21.9061 1.26664 22.1766 0.205797L22.2251 0.013107L8.64166 0Z" fill="white"/>
<path d="M20.2598 18L20.2652 17.9753H20.2598L24.6363 0L38.1877 0.0149794C38.6241 0.000455726 39.0591 0.0701227 39.4661 0.21973C39.8731 0.369337 40.2436 0.595748 40.555 0.885148C40.8556 1.16711 41.0905 1.50542 41.2445 1.87832C41.3985 2.25123 41.4683 2.65046 41.4492 3.05036C41.4447 3.32554 41.4114 3.59962 41.3498 3.86861L40.5262 7.20034C40.3804 7.76179 40.1471 8.29966 39.834 8.79633C39.5194 9.30751 39.1125 9.76264 38.6316 10.1411C38.2031 10.4718 37.7028 10.7094 37.1663 10.8371C36.6499 10.9481 36.121 10.9987 35.5915 10.9879L26.2094 10.9806L25.4229 14.1831C25.1588 15.2537 24.5132 16.206 23.5944 16.8801C22.7227 17.5907 21.6129 17.9863 20.4618 17.9969L20.2598 18ZM27.926 3.98674L27.1859 6.99965L36.3267 7.00782L37.0674 3.99491L27.926 3.98623V3.98674Z" fill="white"/>
<path d="M60.3815 0.872892C59.7826 0.294482 58.9862 0 58.0214 0H43.7222L43.6939 0.128006C43.632 0.388188 43.5969 0.653449 43.5893 0.920044C43.5695 1.32366 43.6376 1.72681 43.7894 2.10453C43.9412 2.48224 44.1735 2.82647 44.4718 3.11589C45.0726 3.69362 45.8674 3.98759 46.8339 3.98759H49.8267L46.4191 17.9767L46.6215 17.9736C47.7726 17.963 48.8824 17.5673 49.7541 16.8568C50.673 16.183 51.3183 15.2306 51.5811 14.1598L54.0794 3.98759H61.1345L61.1631 3.86044C61.2242 3.5918 61.2572 3.31813 61.2616 3.04338C61.2814 2.64377 61.2134 2.24463 61.0619 1.87108C60.9104 1.49754 60.6787 1.15767 60.3815 0.872892" fill="white"/>
<path fill-rule="evenodd" clip-rule="evenodd" d="M116.761 18H61.2656L65.0914 3.16475C65.3242 2.26221 65.8709 1.45969 66.6439 0.885834C67.4168 0.31198 68.3713 3.21573e-05 69.3542 0H124.85L121.024 14.8353C120.791 15.7378 120.244 16.5403 119.471 17.1141C118.698 17.688 117.744 18 116.761 18ZM72.9379 14.6246C71.6942 14.6246 70.6565 14.4325 69.8537 14.0532V4.23963C70.6766 3.86072 71.7142 3.66854 72.9379 3.66854C73.6552 3.65662 74.3683 3.77598 75.0377 4.02004C75.6385 4.2495 76.1725 4.61134 76.5953 5.07541C77.046 5.57998 77.3787 6.16896 77.5714 6.80367C77.7998 7.56543 77.9095 8.35458 77.8971 9.14624C77.9096 9.9383 77.7999 10.7279 77.5714 11.49C77.3787 12.1246 77.046 12.7135 76.5953 13.2179C76.1725 13.682 75.6385 14.0439 75.0377 14.2733C74.3683 14.5173 73.6552 14.6366 72.9379 14.6246ZM73.0618 5.4116C72.7142 5.40031 72.3674 5.44989 72.0389 5.55782V12.7348C72.366 12.8481 72.7139 12.898 73.0618 12.8814C73.4622 12.8895 73.8591 12.8095 74.2213 12.6479C74.5578 12.4873 74.8436 12.2457 75.0498 11.9474C75.29 11.5905 75.4584 11.1948 75.5467 10.7802C75.6643 10.2427 75.7198 9.69484 75.7124 9.14607C75.7198 8.59731 75.6643 8.0494 75.5467 7.51195C75.4584 7.09736 75.29 6.70172 75.0498 6.34492C74.8436 6.04672 74.5578 5.80521 74.2213 5.6448C73.8591 5.48328 73.4622 5.40345 73.0618 5.4116ZM79.1831 3.8442V14.449H85.1495V12.72H81.3218V9.92262H84.7779V8.22347H81.3218V5.57228H85.1495V3.8442H79.1831ZM91.8134 13.7163C91.1213 14.3217 90.1809 14.6245 88.9922 14.6246C87.8244 14.6246 86.8638 14.4342 86.1105 14.0532L86.8233 12.2659C87.4489 12.6074 88.1618 12.7798 88.8841 12.7643C89.3278 12.7856 89.7657 12.6614 90.1236 12.4126C90.274 12.3022 90.3945 12.1596 90.4753 11.9966C90.5562 11.8337 90.595 11.6549 90.5886 11.475C90.5886 10.9285 90.0772 10.4354 89.0543 9.99581C88.3728 9.72415 87.7403 9.35354 87.1798 8.89738C86.8761 8.63021 86.6351 8.30584 86.4723 7.94522C86.3095 7.58459 86.2284 7.19571 86.2344 6.80366C86.2344 5.85644 86.5598 5.0997 87.2107 4.53343C87.8717 3.95683 88.7602 3.66854 89.8761 3.66854C90.9402 3.66854 91.8134 3.8589 92.4956 4.23963L91.8134 5.90949C91.2544 5.59942 90.6174 5.43747 89.9692 5.44071C89.5614 5.41979 89.1594 5.53956 88.838 5.77774C88.7015 5.89041 88.5932 6.03029 88.5209 6.1873C88.4485 6.34431 88.4139 6.51453 88.4196 6.6857C88.4196 7.2034 88.9465 7.70629 90.0002 8.19437C90.8784 8.60426 91.5036 8.97046 91.8757 9.29297C92.1798 9.55679 92.4212 9.87854 92.5842 10.237C92.7471 10.5955 92.8278 10.9825 92.8209 11.3726C92.8209 12.3495 92.485 13.1308 91.8134 13.7163ZM96.3232 14.449H94.1379V3.8442H96.3232V14.449ZM105.87 14.0532C105.126 14.4338 104.098 14.6243 102.786 14.6246C101.225 14.6246 99.9856 14.1315 99.0662 13.1452C98.1468 12.159 97.6871 10.826 97.6869 9.14624C97.6869 7.47683 98.1672 6.14406 99.1278 5.14793C100.088 4.16167 101.37 3.66854 102.972 3.66854C104.16 3.66854 105.095 3.8589 105.777 4.23963L105.095 5.85094C104.568 5.56724 103.886 5.42539 103.049 5.42539C102.627 5.41057 102.206 5.48439 101.818 5.64153C101.43 5.79868 101.083 6.03524 100.803 6.33419C100.182 6.98864 99.872 7.92145 99.872 9.13262C99.872 10.3337 100.151 11.276 100.709 11.9595C100.927 12.2477 101.216 12.4821 101.55 12.6427C101.885 12.8033 102.255 12.8855 102.63 12.8822C103.036 12.9039 103.441 12.849 103.824 12.7209V9.76142H102.104V8.19437H105.87V14.0532ZM110.023 8.16509L114.037 14.449H115.834V3.8442H113.959V9.79087C113.959 10.2398 113.97 10.7135 113.99 11.2119H113.959C113.764 10.7844 113.542 10.3686 113.293 9.96687L109.372 3.8442H107.497V14.449H109.356V8.29667C109.356 7.8575 109.346 7.39864 109.325 6.92009H109.356C109.547 7.34941 109.77 7.76544 110.023 8.16509Z" fill="white"/>
</svg>
