<svg width="76" height="26" viewBox="0 0 76 26" fill="none" xmlns="http://www.w3.org/2000/svg">
<rect x="0.5" y="0.5" width="75" height="25" rx="3.5" stroke="#404040"/>
<path d="M10.958 16.138H7.066L6.422 18H4.364L7.878 8.214H10.16L13.674 18H11.602L10.958 16.138ZM10.426 14.57L9.012 10.482L7.598 14.57H10.426ZM16.9475 8.228V18H14.9875V8.228H16.9475ZM27.7639 12.988C28.3146 13.0907 28.7672 13.366 29.1219 13.814C29.4766 14.262 29.6539 14.7753 29.6539 15.354C29.6539 15.8767 29.5232 16.3387 29.2619 16.74C29.0099 17.132 28.6412 17.44 28.1559 17.664C27.6706 17.888 27.0966 18 26.4339 18H22.2199V8.228H26.2519C26.9146 8.228 27.4839 8.33533 27.9599 8.55C28.4452 8.76467 28.8092 9.06333 29.0519 9.446C29.3039 9.82867 29.4299 10.2627 29.4299 10.748C29.4299 11.3173 29.2759 11.7933 28.9679 12.176C28.6692 12.5587 28.2679 12.8293 27.7639 12.988ZM24.1799 12.26H25.9719C26.4386 12.26 26.7979 12.1573 27.0499 11.952C27.3019 11.7373 27.4279 11.434 27.4279 11.042C27.4279 10.65 27.3019 10.3467 27.0499 10.132C26.7979 9.91733 26.4386 9.81 25.9719 9.81H24.1799V12.26ZM26.1539 16.404C26.6299 16.404 26.9986 16.292 27.2599 16.068C27.5306 15.844 27.6659 15.5267 27.6659 15.116C27.6659 14.696 27.5259 14.3693 27.2459 14.136C26.9659 13.8933 26.5879 13.772 26.1119 13.772H24.1799V16.404H26.1539ZM38.538 10.244V18H36.564V17.02C36.312 17.356 35.9807 17.622 35.57 17.818C35.1687 18.0047 34.73 18.098 34.254 18.098C33.6473 18.098 33.1107 17.972 32.644 17.72C32.1773 17.4587 31.8087 17.0807 31.538 16.586C31.2767 16.082 31.146 15.4847 31.146 14.794V10.244H33.106V14.514C33.106 15.13 33.26 15.606 33.568 15.942C33.876 16.2687 34.296 16.432 34.828 16.432C35.3693 16.432 35.794 16.2687 36.102 15.942C36.41 15.606 36.564 15.13 36.564 14.514V10.244H38.538ZM41.4659 9.32C41.1205 9.32 40.8312 9.21267 40.5979 8.998C40.3739 8.774 40.2619 8.49867 40.2619 8.172C40.2619 7.84533 40.3739 7.57467 40.5979 7.36C40.8312 7.136 41.1205 7.024 41.4659 7.024C41.8112 7.024 42.0959 7.136 42.3199 7.36C42.5532 7.57467 42.6699 7.84533 42.6699 8.172C42.6699 8.49867 42.5532 8.774 42.3199 8.998C42.0959 9.21267 41.8112 9.32 41.4659 9.32ZM42.4319 10.244V18H40.4719V10.244H42.4319ZM46.3283 7.64V18H44.3683V7.64H46.3283ZM47.7608 14.094C47.7608 13.31 47.9148 12.6147 48.2228 12.008C48.5402 11.4013 48.9695 10.9347 49.5108 10.608C50.0522 10.2813 50.6542 10.118 51.3168 10.118C51.8208 10.118 52.3015 10.23 52.7588 10.454C53.2162 10.6687 53.5802 10.958 53.8508 11.322V7.64H55.8388V18H53.8508V16.852C53.6082 17.2347 53.2675 17.5427 52.8288 17.776C52.3902 18.0093 51.8815 18.126 51.3028 18.126C50.6495 18.126 50.0522 17.958 49.5108 17.622C48.9695 17.286 48.5402 16.8147 48.2228 16.208C47.9148 15.592 47.7608 14.8873 47.7608 14.094ZM53.8648 14.122C53.8648 13.646 53.7715 13.24 53.5848 12.904C53.3982 12.5587 53.1462 12.2973 52.8288 12.12C52.5115 11.9333 52.1708 11.84 51.8068 11.84C51.4428 11.84 51.1068 11.9287 50.7988 12.106C50.4908 12.2833 50.2388 12.5447 50.0428 12.89C49.8562 13.226 49.7628 13.6273 49.7628 14.094C49.7628 14.5607 49.8562 14.9713 50.0428 15.326C50.2388 15.6713 50.4908 15.9373 50.7988 16.124C51.1162 16.3107 51.4522 16.404 51.8068 16.404C52.1708 16.404 52.5115 16.3153 52.8288 16.138C53.1462 15.9513 53.3982 15.69 53.5848 15.354C53.7715 15.0087 53.8648 14.598 53.8648 14.122ZM64.9631 13.954C64.9631 14.234 64.9444 14.486 64.9071 14.71H59.2371C59.2838 15.27 59.4798 15.7087 59.8251 16.026C60.1704 16.3433 60.5951 16.502 61.0991 16.502C61.8271 16.502 62.3451 16.1893 62.6531 15.564H64.7671C64.5431 16.3107 64.1138 16.9267 63.4791 17.412C62.8444 17.888 62.0651 18.126 61.1411 18.126C60.3944 18.126 59.7224 17.9627 59.1251 17.636C58.5371 17.3 58.0751 16.8287 57.7391 16.222C57.4124 15.6153 57.2491 14.9153 57.2491 14.122C57.2491 13.3193 57.4124 12.6147 57.7391 12.008C58.0658 11.4013 58.5231 10.9347 59.1111 10.608C59.6991 10.2813 60.3758 10.118 61.1411 10.118C61.8784 10.118 62.5364 10.2767 63.1151 10.594C63.7031 10.9113 64.1558 11.364 64.4731 11.952C64.7998 12.5307 64.9631 13.198 64.9631 13.954ZM62.9331 13.394C62.9238 12.89 62.7418 12.4887 62.3871 12.19C62.0324 11.882 61.5984 11.728 61.0851 11.728C60.5998 11.728 60.1891 11.8773 59.8531 12.176C59.5264 12.4653 59.3258 12.8713 59.2511 13.394H62.9331ZM68.3537 11.448C68.6057 11.0373 68.9324 10.7153 69.3337 10.482C69.7444 10.2487 70.2111 10.132 70.7337 10.132V12.19H70.2157C69.5997 12.19 69.1331 12.3347 68.8157 12.624C68.5077 12.9133 68.3537 13.4173 68.3537 14.136V18H66.3937V10.244H68.3537V11.448Z" fill="white"/>
</svg>
