<svg width="96" height="33" viewBox="0 0 96 33" fill="none" xmlns="http://www.w3.org/2000/svg">
<rect x="0.5" y="0.5" width="95.0001" height="32" rx="3.5" fill="white"/>
<rect x="0.5" y="0.5" width="95.0001" height="32" rx="3.5" stroke="#D5D5D5"/>
<path d="M48.3404 7.2342C48.9557 7.55812 49.4566 8.06326 49.7753 8.68126C50.1335 9.40118 50.3083 10.1984 50.2843 11.0021V16.1337H48.5662V13.7521H43.7525V16.1337H42.0605V11.0021C42.0379 10.1983 42.2133 9.40131 42.5713 8.68126C42.8905 8.06366 43.3913 7.55866 44.0062 7.2342C44.6842 6.9103 45.4262 6.74219 46.1776 6.74219C46.9291 6.74219 47.671 6.9103 48.3491 7.2342H48.3404ZM48.5662 12.3119V10.844C48.5662 9.98935 48.3549 9.3437 47.9322 8.9071C47.5095 8.47049 46.9188 8.25218 46.1603 8.25218C45.4005 8.25218 44.8099 8.47049 44.3883 8.9071C43.9668 9.3437 43.7549 9.98935 43.7525 10.844V12.3119H48.5662Z" fill="#010101"/>
<path d="M61.3511 6.875V16.1324H59.699V14.9546C59.0713 15.8266 58.1014 16.2632 56.7892 16.2644C55.696 16.2644 54.8367 15.9228 54.2113 15.2395C53.5859 14.5562 53.2726 13.5886 53.2715 12.3367V6.875H54.9913V12.2706C54.9913 13.0906 55.1876 13.7096 55.5802 14.1277C55.9728 14.5458 56.5125 14.7554 57.1992 14.7565C57.9393 14.7565 58.5299 14.5342 58.9711 14.0895C59.4124 13.6447 59.633 12.9812 59.633 12.0987V6.875H61.3511Z" fill="#010101"/>
<path d="M70.5545 16.1316L68.6627 13.4164C68.5443 13.4271 68.4254 13.4318 68.3066 13.4303H66.222V16.1282H64.5039V6.87427H68.3118C69.0303 6.8586 69.7441 6.99414 70.4068 7.27208C70.9661 7.506 71.4427 7.90161 71.7757 8.40819C72.1026 8.93581 72.268 9.54749 72.2517 10.1679C72.2685 10.805 72.0909 11.4322 71.7427 11.9659C71.3838 12.4828 70.8734 12.8755 70.2817 13.0899L72.4098 16.1316H70.5545ZM69.9326 8.806C69.5446 8.48868 68.976 8.33001 68.2267 8.33001H66.2168V12.0267H68.2267C68.9748 12.0267 69.5434 11.8657 69.9326 11.5438C70.1281 11.376 70.2823 11.1653 70.3833 10.9282C70.4842 10.6911 70.5291 10.4339 70.5145 10.1766C70.531 9.91862 70.487 9.66032 70.3859 9.42235C70.2849 9.18438 70.1297 8.97332 69.9326 8.806V8.806Z" fill="#010101"/>
<path d="M81.0267 7.2342C81.6412 7.55911 82.1419 8.06399 82.4616 8.68126C82.8189 9.40147 82.9937 10.1985 82.9706 11.0021V16.1337H81.2508V13.7521H76.4458V16.1337H74.752V11.0021C74.7289 10.1985 74.9037 9.40147 75.261 8.68126C75.5807 8.06399 76.0814 7.55911 76.6959 7.2342C77.374 6.9103 78.1159 6.74219 78.8674 6.74219C79.6188 6.74219 80.3608 6.9103 81.0389 7.2342H81.0267ZM81.2508 12.3119V10.844C81.2508 9.98935 81.0394 9.3437 80.6167 8.9071C80.194 8.47049 79.6034 8.25218 78.8448 8.25218C78.0874 8.25218 77.4968 8.47049 77.0729 8.9071C76.649 9.3437 76.44 9.98935 76.4458 10.844V12.3119H81.2508Z" fill="#010101"/>
<path d="M85.641 15.9141C85.5363 15.8122 85.454 15.6896 85.3993 15.5541C85.3445 15.4186 85.3186 15.2732 85.3231 15.1272C85.3173 14.9811 85.341 14.8353 85.3929 14.6986C85.4448 14.5618 85.5238 14.437 85.6251 14.3316C85.7264 14.2261 85.848 14.1422 85.9825 14.0849C86.117 14.0276 86.2618 13.998 86.408 13.998C86.5542 13.998 86.699 14.0276 86.8335 14.0849C86.968 14.1422 87.0896 14.2261 87.1909 14.3316C87.2922 14.437 87.3712 14.5618 87.4231 14.6986C87.475 14.8353 87.4987 14.9811 87.4929 15.1272C87.4947 15.3425 87.4327 15.5535 87.3146 15.7336C87.1966 15.9137 87.0279 16.0547 86.8297 16.1389C86.6315 16.2232 86.4128 16.2467 86.2013 16.2067C85.9897 16.1667 85.7948 16.0649 85.641 15.9141V15.9141Z" fill="#010101"/>
<path d="M44.9096 20.7909C45.2037 21.0862 45.3508 21.5153 45.3508 22.0782V24.3608H44.6299V22.1546C44.6534 21.84 44.5538 21.5285 44.352 21.286C44.2473 21.1841 44.1224 21.1052 43.9853 21.0547C43.8483 21.0041 43.7021 20.9829 43.5563 20.9924C43.387 20.984 43.2177 21.0105 43.059 21.0703C42.9003 21.1301 42.7556 21.2218 42.6339 21.3399C42.5148 21.4723 42.4235 21.6272 42.3653 21.7955C42.3071 21.9637 42.2833 22.142 42.2951 22.3196V24.3608H41.5742V20.3827H42.2691V20.9838C42.418 20.7749 42.6218 20.6114 42.858 20.5112C43.1241 20.3949 43.4118 20.3357 43.7023 20.3375C43.9237 20.3278 44.1448 20.3629 44.3523 20.4408C44.5597 20.5188 44.7493 20.6378 44.9096 20.7909V20.7909Z" fill="#010101"/>
<path d="M52.8455 22.6238H49.6196C49.637 22.7879 49.6866 22.947 49.7656 23.0919C49.8446 23.2367 49.9514 23.3646 50.0799 23.4681C50.3591 23.6857 50.7059 23.7982 51.0597 23.786C51.2744 23.7946 51.4885 23.7561 51.6868 23.6733C51.8852 23.5905 52.063 23.4653 52.2079 23.3066L52.6058 23.7721C52.4235 23.9836 52.1928 24.1481 51.9335 24.2516C51.6486 24.3654 51.3439 24.4215 51.0371 24.4166C50.6485 24.4245 50.264 24.3356 49.9184 24.1578C49.6022 23.9944 49.3403 23.7427 49.1644 23.4334C48.9862 23.1152 48.8945 22.7558 48.8986 22.3911C48.8937 22.0271 48.9828 21.6681 49.1575 21.3488C49.3223 21.0453 49.5691 20.7943 49.8697 20.6244C50.1826 20.4494 50.5362 20.3601 50.8946 20.3655C51.2504 20.3594 51.6014 20.4488 51.9109 20.6244C52.2066 20.795 52.4476 21.0462 52.6058 21.3488C52.7784 21.6767 52.865 22.0431 52.8576 22.4136C52.8573 22.4839 52.8532 22.554 52.8455 22.6238V22.6238ZM50.0278 21.2793C49.793 21.4941 49.6474 21.7892 49.6196 22.1062H52.1697C52.1403 21.7911 51.9948 21.4982 51.7615 21.2845C51.5189 21.0787 51.211 20.9657 50.8929 20.9657C50.5748 20.9657 50.2669 21.0787 50.0243 21.2845L50.0278 21.2793Z" fill="#010101"/>
<path d="M58.6471 24.1335C58.5331 24.2295 58.3998 24.3 58.2562 24.3402C58.101 24.3883 57.9393 24.4124 57.7768 24.4114C57.6079 24.422 57.4386 24.3989 57.2787 24.3434C57.1189 24.288 56.9717 24.2012 56.8457 24.0883C56.7303 23.9654 56.6415 23.8201 56.5847 23.6614C56.5279 23.5027 56.5044 23.334 56.5156 23.1658V20.9822H55.8398V20.3881H56.5156V19.5195H57.2365V20.3881H58.3796V20.9822H57.2383V23.145C57.2259 23.3247 57.2838 23.5023 57.3998 23.6401C57.4599 23.7 57.532 23.7464 57.6113 23.7764C57.6907 23.8063 57.7755 23.8191 57.8602 23.8138C58.0646 23.8197 58.2645 23.7532 58.4248 23.6262L58.6471 24.1335Z" fill="#010101"/>
<path d="M68.0136 20.388L66.5283 24.3609H65.8335L64.6852 21.3452L63.5248 24.3609H62.8299L61.3516 20.3828H62.0343L63.1895 23.5514L64.3916 20.3828H64.9979L66.1774 23.5653L67.3622 20.3828L68.0136 20.388Z" fill="#010101"/>
<path d="M71.8185 24.1493C71.5105 23.9803 71.255 23.7296 71.0802 23.4249C70.9058 23.1036 70.8145 22.7438 70.8145 22.3782C70.8145 22.0127 70.9058 21.6529 71.0802 21.3316C71.2541 21.027 71.5098 20.7772 71.8185 20.6107C72.1463 20.4353 72.5134 20.3463 72.8851 20.3518C73.2552 20.3461 73.6206 20.4352 73.9465 20.6107C74.2539 20.7783 74.5089 21.0279 74.6831 21.3316C74.8575 21.6529 74.9488 22.0127 74.9488 22.3782C74.9488 22.7438 74.8575 23.1036 74.6831 23.4249C74.508 23.7288 74.2534 23.9793 73.9465 24.1493C73.6215 24.3274 73.2557 24.4178 72.8851 24.4116C72.5129 24.4176 72.1454 24.3273 71.8185 24.1493V24.1493ZM73.5713 23.6055C73.7734 23.488 73.9388 23.3166 74.049 23.1104C74.1621 22.8829 74.221 22.6323 74.221 22.3782C74.221 22.1242 74.1621 21.8735 74.049 21.646C73.9397 21.4401 73.774 21.2696 73.5713 21.1544C73.3602 21.0416 73.1245 20.9825 72.8851 20.9825C72.6457 20.9825 72.41 21.0416 72.1989 21.1544C71.9956 21.2699 71.8289 21.4403 71.7177 21.646C71.6024 21.8729 71.5423 22.1237 71.5423 22.3782C71.5423 22.6327 71.6024 22.8836 71.7177 23.1104C71.8298 23.3164 71.9962 23.4877 72.1989 23.6055C72.4093 23.7206 72.6453 23.781 72.8851 23.781C73.1249 23.781 73.3609 23.7206 73.5713 23.6055V23.6055Z" fill="#010101"/>
<path d="M79.7464 20.5404C80.0267 20.4144 80.3323 20.3549 80.6393 20.3667V21.0616C80.5817 21.0549 80.5236 21.052 80.4656 21.0529C80.2967 21.0437 80.1277 21.0698 79.9695 21.1297C79.8112 21.1895 79.6672 21.2817 79.5466 21.4003C79.3078 21.6748 79.1873 22.0327 79.2114 22.3957V24.3622H78.4922V20.3841H79.1871V21.0616C79.3136 20.833 79.5095 20.6505 79.7464 20.5404Z" fill="#010101"/>
<path d="M85.6223 22.5133L84.7971 23.2794V24.3617H84.0762V18.8027H84.7971V22.3744L86.9651 20.3922H87.8337L86.1608 22.0373L88.0004 24.3617H87.1162L85.6223 22.5133Z" fill="#010101"/>
<path opacity="0.3" d="M31.2936 20.3019L31.2589 20.2724C31.1893 20.0322 31.0807 19.8051 30.9375 19.6001L30.637 19.2387C30.6211 19.1286 30.5985 19.0195 30.5692 18.9122L30.1575 18.0853L29.9213 16.6191L30.187 15.1529L30.5588 14.4442V14.4233C30.5971 14.2931 30.625 14.1601 30.6422 14.0255L30.9288 13.6937C31.0883 13.4751 31.2061 13.2289 31.2762 12.9676L31.3075 12.9432C31.728 12.5986 32.0134 12.1167 32.1135 11.5823C32.2135 11.0479 32.1217 10.4953 31.8543 10.022C31.5869 9.54862 31.161 9.18481 30.6517 8.99465C30.1423 8.8045 29.5822 8.80019 29.07 8.98249H29.0596C28.7854 8.89825 28.4977 8.867 28.2119 8.89042L27.8158 8.95991C27.6791 8.89702 27.5373 8.84588 27.3919 8.80704L26.5963 8.7584L26.5772 8.7445L25.1875 8.21119L24.0305 7.22969L23.5372 6.4497L23.5146 6.42191C23.4367 6.33861 23.3531 6.26083 23.2644 6.18912L23.115 5.74788V5.73051C23.0108 5.49744 22.8687 5.2832 22.6946 5.09644L22.6859 5.03912C22.5897 4.46696 22.2952 3.94693 21.854 3.57018C21.4127 3.19343 20.853 2.98401 20.2728 2.97862C19.6927 2.97323 19.1291 3.17223 18.681 3.54072C18.2328 3.90921 17.9287 4.42368 17.8219 4.99395L17.808 5.07039C17.6342 5.24808 17.4904 5.45284 17.3824 5.67666L17.2086 6.15264C17.126 6.21817 17.0471 6.28835 16.9724 6.36284L16.42 7.19842L15.2648 8.13302L13.9237 8.61248L13.8924 8.62985L13.875 8.64201L13.1159 8.67328H13.0916C12.9476 8.70847 12.8069 8.75613 12.6712 8.81573L12.2855 8.74103H12.2768C11.9966 8.71299 11.7137 8.73834 11.443 8.81573V8.81573C10.9344 8.62545 10.3751 8.62038 9.86313 8.8014C9.35119 8.98242 8.91936 9.33797 8.64345 9.80565C8.36753 10.2733 8.26514 10.8232 8.35426 11.3589C8.44339 11.8945 8.71832 12.3816 9.13081 12.7348L9.14471 12.7452C9.21038 13.0149 9.32458 13.2703 9.48172 13.4991L9.74055 13.8084C9.75456 13.9505 9.78071 14.0911 9.81873 14.2287L10.1662 14.934V14.9601L10.3989 16.4037L10.1366 17.8473L9.7006 18.6811L9.6867 18.7159C9.65684 18.815 9.63363 18.9159 9.61722 19.0181L9.30105 19.3812L9.28889 19.3968C9.14584 19.5941 9.03502 19.8128 8.96057 20.0448L8.90498 20.0917C8.45465 20.4605 8.14905 20.9766 8.04207 21.5488C7.9351 22.121 8.03363 22.7126 8.32029 23.2192C8.60695 23.7258 9.06331 24.115 9.60888 24.3179C10.1544 24.5209 10.7542 24.5247 11.3023 24.3286L11.337 24.3148C11.5887 24.3791 11.8493 24.4014 12.1083 24.3808L12.5687 24.3009C12.6814 24.3473 12.7976 24.3851 12.9161 24.4138L13.8472 24.4728L15.2578 25.0148L16.3922 25.9755L16.4234 25.9946L16.8508 26.6669L16.8647 26.6843C16.9645 26.7907 17.0738 26.8878 17.1913 26.9744L17.332 27.3809C17.447 27.6368 17.6098 27.8685 17.8114 28.0636V28.0896C17.8908 28.63 18.1634 29.1234 18.5786 29.4782C18.9938 29.8331 19.5236 30.0254 20.0698 30.0196H20.0923C20.6342 30.0299 21.1617 29.845 21.5785 29.4987C21.9953 29.1523 22.2737 28.6676 22.3628 28.1331V28.0861C22.5603 27.8962 22.7216 27.672 22.8388 27.4243L22.9899 27.0126C23.1003 26.9322 23.2037 26.8427 23.2992 26.7451L23.7682 26.0398L24.9391 25.0913L26.3409 24.5892L27.2095 24.5527H27.246C27.3606 24.5251 27.4732 24.4897 27.583 24.4468L28.0138 24.5302H28.0329C28.1126 24.5385 28.1926 24.5426 28.2727 24.5423C28.4481 24.5417 28.6229 24.5213 28.7938 24.4815L28.8216 24.4919C29.1126 24.6047 29.4216 24.6635 29.7336 24.6657C30.158 24.6594 30.5735 24.5427 30.939 24.3271C31.3046 24.1114 31.6076 23.8042 31.8182 23.4357C32.1255 22.9385 32.2417 22.3466 32.1452 21.7702C32.0486 21.1937 31.746 20.6719 31.2936 20.3019V20.3019ZM30.458 22.6401C30.111 23.2669 29.5516 23.7492 28.8807 24.0003L28.5333 23.87C29.593 22.9557 30.3205 21.7164 30.6022 20.3453L30.8836 20.585C30.9943 21.299 30.8431 22.0289 30.458 22.6401V22.6401ZM23.5927 25.8018C23.5319 25.8296 23.4677 25.8574 23.3999 25.8834L23.5649 25.437L23.8863 25.4022L23.6553 25.7497L23.5927 25.8018ZM22.8423 26.8059C22.7529 26.8689 22.6601 26.9269 22.5643 26.9796L22.6686 26.4167C22.7884 26.3872 22.9048 26.3577 23.016 26.3247L22.8423 26.8059ZM22.2256 27.9281C21.6229 28.4325 20.861 28.707 20.0752 28.7028C19.2893 28.6987 18.5304 28.4162 17.933 27.9055L17.8427 27.3583C18.5462 27.6525 19.302 27.8014 20.0646 27.796H20.1288C20.8814 27.8077 21.6286 27.6683 22.3263 27.3861L22.2256 27.9281ZM20.0663 27.5442C19.2808 27.5494 18.5039 27.3815 17.7906 27.0525L17.6864 26.4272C18.5082 26.6053 19.347 26.6927 20.1879 26.6877C20.9638 26.6925 21.7381 26.6168 22.4983 26.4619L22.3837 27.0803C21.6553 27.4052 20.8636 27.5636 20.0663 27.5442V27.5442ZM17.1583 26.2864C17.2729 26.3229 17.3945 26.3559 17.5161 26.3855L17.6117 26.957C17.5125 26.9001 17.4168 26.8375 17.325 26.7694L17.1583 26.2864ZM16.5277 25.7097L16.2914 25.3362L16.625 25.3779L16.783 25.8348C16.7049 25.8035 16.6284 25.7705 16.5572 25.7358L16.5277 25.7097ZM9.70755 22.4508C9.33018 21.8258 9.19426 21.0844 9.32537 20.3662L9.61895 20.1247C9.73681 20.8219 9.97925 21.4921 10.3347 22.1033C10.6673 22.7046 11.1003 23.2445 11.615 23.6998L11.2484 23.8283C10.5883 23.5654 10.0425 23.0774 9.70755 22.4508ZM10.4632 14.9531C10.4632 14.8784 10.4806 14.8003 10.4927 14.7204L10.7863 15.0678C10.7412 15.1651 10.6977 15.2624 10.656 15.3579L10.4684 14.9809L10.4632 14.9531ZM9.98723 13.7945C9.97635 13.6848 9.97171 13.5746 9.97334 13.4644L10.3937 13.824C10.359 13.9386 10.326 14.0533 10.2982 14.1714L9.98723 13.7945ZM9.75793 10.4643C10.1363 9.77686 10.7635 9.26032 11.5107 9.02071L12.0076 9.20659C10.7987 10.1627 9.99272 11.5377 9.74924 13.0596L9.34795 12.7122C9.18969 11.9381 9.33657 11.1327 9.75793 10.4643ZM10.7394 11.0376C11.1274 10.3556 11.6613 9.76771 12.3029 9.31603L12.8761 9.5297C11.797 10.7286 10.9699 12.1323 10.4441 13.6572L9.98202 13.2611C10.0651 12.471 10.3239 11.7095 10.7394 11.0324V11.0376ZM13.2514 9.14752C13.1645 9.22743 13.0777 9.32124 12.9908 9.40289L12.4696 9.20832C12.5675 9.15132 12.6684 9.09971 12.7719 9.05372L13.2514 9.14752ZM14.0401 8.89216L14.4813 8.87479L14.2833 9.13536L13.8281 9.04851C13.8976 8.99292 13.9688 8.9408 14.0383 8.8939L14.0401 8.89216ZM26.4278 9.01029C26.499 9.05893 26.5703 9.11452 26.6415 9.17358L26.169 9.25523C26.1012 9.16142 26.0352 9.06935 25.9692 8.98076L26.4226 9.00855L26.4278 9.01029ZM27.7116 9.19616C27.8167 9.24826 27.9188 9.30626 28.0173 9.36988L27.4771 9.56097C27.3902 9.46716 27.3033 9.37683 27.2165 9.29171L27.7116 9.19616ZM30.7082 10.6623C31.1219 11.343 31.254 12.1581 31.0765 12.9346L30.6596 13.282C30.4488 11.7514 29.6699 10.3561 28.4777 9.37336L28.9988 9.19964C29.7324 9.45188 30.3432 9.97266 30.7082 10.6571V10.6623ZM30.0741 14.3799C30.0498 14.2687 30.0203 14.154 29.989 14.0324L30.4216 13.685C30.4204 13.7936 30.4128 13.9021 30.399 14.0099L30.0741 14.3799ZM29.89 15.1303L29.8761 15.2085L29.6867 15.5681C29.6485 15.4743 29.6086 15.377 29.5651 15.278L29.8709 14.9306C29.8761 14.9966 29.89 15.0643 29.89 15.1303ZM24.8956 24.2609C24.946 24.1601 24.9964 24.0577 25.0485 23.9552L25.6061 24.0611L25.4706 24.2348L24.8956 24.2609ZM24.1017 25.0305C23.9714 25.0478 23.8377 25.0635 23.6987 25.0774L23.8724 24.6049L24.3936 24.6448L24.1486 25.0148L24.1017 25.0305ZM17.4692 25.1139L17.3702 24.5232V24.4867C19.1282 24.4329 21.1121 24.452 22.8631 24.5423C22.8631 24.5527 22.8631 24.5632 22.8631 24.5736L22.7537 25.159C20.9927 25.2644 19.2265 25.2493 17.4675 25.1139H17.4692ZM22.6807 25.5082L22.5626 26.1405C20.9368 26.4756 19.2586 26.4638 17.6377 26.1058L17.5318 25.4648C18.4472 25.536 19.4635 25.5725 20.4658 25.5725C21.2267 25.5777 21.9807 25.5499 22.6755 25.5082H22.6807ZM16.0517 24.9523L15.8033 24.5614C15.977 24.5493 16.1507 24.5388 16.3366 24.5302L16.5103 25.0166C16.3557 24.9957 16.2046 24.9766 16.0604 24.954L16.0517 24.9523ZM14.7175 24.1358L14.5786 23.9499L15.124 23.8561H15.1518C15.2057 23.9656 15.2561 24.0733 15.3064 24.1793L14.7175 24.1358ZM13.7708 9.85976C12.8079 11.2716 11.9375 12.7443 11.165 14.2687L10.6908 13.8639C11.214 12.2973 12.0603 10.858 13.1749 9.63914L13.7708 9.85976ZM14.1026 9.98484L14.6759 10.1985C13.8507 11.7376 12.8501 13.4331 11.8964 14.8889L11.4343 14.4945C12.2183 12.9325 13.1081 11.4257 14.0974 9.98484H14.1026ZM15.3829 8.83136C15.3082 8.98249 15.23 9.13884 15.1484 9.29692L14.6637 9.20311C14.7575 9.07977 14.8478 8.96165 14.9382 8.85568L15.3829 8.83136ZM24.4857 8.66807L24.1295 8.69065C24.1208 8.66459 24.1122 8.63853 24.1052 8.61421L23.9402 8.13475L24.1677 8.16776L24.4857 8.66807ZM25.528 8.94775C25.6165 9.06414 25.7017 9.18748 25.8007 9.31603L25.2986 9.40289C25.2187 9.22917 25.1423 9.07804 25.0676 8.91996L25.528 8.94775ZM28.9345 14.6995L28.4586 15.0921C27.5379 13.6103 26.5633 11.8888 25.7625 10.3271L26.3462 10.1169C27.3091 11.5841 28.171 13.1152 28.9259 14.6995H28.9345ZM26.6884 9.99874L27.2964 9.78333C28.3885 11.0289 29.2065 12.4902 29.6972 14.0724L29.1951 14.4737C28.4548 12.929 27.6145 11.4341 26.6797 9.99874H26.6884ZM29.4679 15.9381V15.9798L29.2698 16.3707C29.1777 16.2334 29.0857 16.0927 28.9901 15.9468L29.3132 15.5751C29.3677 15.6978 29.4181 15.8188 29.4644 15.9381H29.4679ZM29.7024 18.9382L29.2802 18.5751C29.3098 18.5161 29.3393 18.4535 29.3671 18.4014L29.7302 18.8357C29.7163 18.8653 29.7163 18.9017 29.6989 18.9382H29.7024ZM30.0029 19.1554L30.1141 19.2891L29.9942 19.1866C29.9942 19.1762 29.996 19.1658 29.9994 19.1501L30.0029 19.1554ZM26.6258 23.1508C27.5188 21.8234 28.331 20.4433 29.0579 19.0181L29.553 19.442C29.0418 20.8915 28.2555 22.2287 27.2373 23.3802L26.6258 23.1508ZM23.9992 24.2175C24.0496 24.0629 24.1017 23.9083 24.1573 23.7519C24.3745 23.7953 24.5864 23.8422 24.7966 23.8926C24.7323 24.0194 24.6715 24.1445 24.6107 24.2678L23.9992 24.2175ZM23.1029 24.1601C23.1446 23.9691 23.1897 23.778 23.2384 23.5904C23.4781 23.6268 23.7161 23.6668 23.9523 23.712C23.895 23.8752 23.8394 24.0403 23.7786 24.2036C23.5597 24.1879 23.3322 24.1758 23.0994 24.1636L23.1029 24.1601ZM16.4304 24.1289C16.38 23.9552 16.3262 23.7936 16.2688 23.6251C16.512 23.5851 16.757 23.5504 17.0037 23.5191C17.0488 23.712 17.0905 23.9048 17.1287 24.0993L16.4304 24.1289ZM15.5896 24.181C15.5305 24.0524 15.4697 23.9239 15.4055 23.7919C15.6226 23.745 15.8415 23.7015 16.0639 23.6633C16.1177 23.8231 16.1698 23.983 16.2185 24.141C15.9926 24.1567 15.7894 24.1688 15.5861 24.1879L15.5896 24.181ZM15.0233 23.0171C15.2648 22.9372 15.5062 22.8642 15.7512 22.7982C15.8085 22.9476 15.8641 23.097 15.9249 23.2447C15.6851 23.2881 15.4489 23.3367 15.2161 23.3871L15.0233 23.0171ZM11.443 18.629L11.9798 18.186L12.0041 18.1652C12.8727 19.5758 13.7899 21.1878 14.5543 22.6714L14.5195 22.6818L13.8576 22.9163C12.963 21.5396 12.1565 20.1077 11.443 18.629V18.629ZM13.5606 23.0136L12.9283 23.236C11.9302 22.0617 11.1697 20.7047 10.689 19.2405L11.1998 18.8201C11.9006 20.2647 12.689 21.6652 13.5606 23.0136V23.0136ZM22.672 8.00968L22.7815 8.66285C22.7815 8.69065 22.7919 8.71671 22.7971 8.7445C21.126 8.79314 19.2655 8.77403 17.6012 8.69239L17.6169 8.61421L17.7385 7.96625C19.3846 7.87622 21.0347 7.89072 22.679 8.00968H22.672ZM17.7941 7.66224L17.9174 7.00038C19.4361 6.71307 20.9963 6.72488 22.5105 7.03513L22.6217 7.7022C21.017 7.59135 19.4071 7.57916 17.801 7.66572L17.7941 7.66224ZM24.6177 8.90953C24.7028 9.09541 24.7914 9.2865 24.8887 9.48106C24.7271 9.5158 24.5656 9.54707 24.4005 9.57834C24.3258 9.36293 24.2563 9.14926 24.1921 8.93559L24.6177 8.90953ZM28.1528 15.3492C28.0052 15.4778 27.8592 15.6081 27.7168 15.7418C26.5329 14.1671 25.5545 12.4479 24.8053 10.6259C24.9981 10.572 25.1892 10.5129 25.3803 10.4521C26.1985 12.0625 27.1974 13.824 28.1528 15.3492ZM29.0561 16.739C28.9797 16.8484 28.9015 16.9596 28.8234 17.0742C28.6792 16.9179 28.5367 16.7546 28.396 16.5896C28.5037 16.468 28.6114 16.3498 28.7209 16.2334C28.8303 16.4089 28.9415 16.5774 29.0527 16.7407L29.0561 16.739ZM25.4185 22.7061C25.1718 22.6175 24.9234 22.5324 24.6733 22.4577C25.4261 20.7489 26.3809 19.1363 27.517 17.6544C27.7023 17.8351 27.8928 18.0088 28.0885 18.1756C27.1731 19.6001 26.2159 21.2209 25.415 22.7079L25.4185 22.7061ZM17.0714 8.91474C17.0193 9.16142 16.962 9.40636 16.8977 9.64957C16.7448 9.62525 16.5937 9.60093 16.4443 9.57313C16.5277 9.34556 16.6041 9.11799 16.6771 8.89042L17.0714 8.91474ZM27.1209 16.5583C27.2443 16.428 27.3676 16.2995 27.4944 16.1744C27.6508 16.3759 27.8106 16.5722 27.9704 16.765C27.8679 16.8849 27.7689 17.0082 27.6681 17.1316C27.4771 16.9422 27.2947 16.7529 27.1105 16.5566L27.1209 16.5583ZM27.0132 16.4367C25.5848 14.8201 24.5023 12.9283 23.8325 10.8777C24.0166 10.8378 24.199 10.7961 24.3814 10.7492C25.1537 12.6378 26.1667 14.4186 27.3954 16.0476C27.2616 16.1709 27.1366 16.3029 27.0098 16.4349L27.0132 16.4367ZM26.6849 16.7945C25.2881 18.3572 24.2089 20.1769 23.5076 22.152C21.2881 21.652 18.9882 21.6236 16.757 22.0686C16.0829 20.0622 15.0204 18.2081 13.6301 16.6121C15.142 14.9583 16.2964 13.0103 17.021 10.8899C19.1052 11.3341 21.2566 11.3612 23.3513 10.9698C24.0452 13.1209 25.1793 15.104 26.6814 16.7928L26.6849 16.7945ZM23.7821 10.7145C23.7004 10.4521 23.6223 10.1933 23.5528 9.92404C23.7172 9.90203 23.8805 9.87771 24.0427 9.85108C24.1295 10.096 24.2164 10.3427 24.3206 10.5876C24.1382 10.638 23.9576 10.6797 23.7786 10.7197L23.7821 10.7145ZM23.3044 10.8083C21.2446 11.1907 19.1296 11.1641 17.0801 10.7301C17.1681 10.4626 17.2498 10.1916 17.325 9.91709C19.2306 10.1744 21.1606 10.1966 23.0716 9.9831C23.1411 10.2645 23.2175 10.5407 23.3009 10.8117L23.3044 10.8083ZM17.3824 9.72079C17.4501 9.46369 17.5092 9.19964 17.5648 8.94254C19.2585 9.02766 21.159 9.04677 22.8597 8.99639C22.91 9.26044 22.9656 9.51754 23.0334 9.78507C21.1541 9.99333 19.2564 9.97174 17.3824 9.72079V9.72079ZM16.8508 9.85282C16.7778 10.1134 16.6979 10.374 16.6128 10.6276C16.4391 10.5859 16.2654 10.5425 16.0916 10.4938C16.1924 10.2541 16.2879 10.0126 16.3765 9.7729L16.8508 9.85282ZM16.5589 10.7805C15.8594 12.8042 14.756 14.6647 13.3156 16.2491C13.194 16.1153 13.0707 15.985 12.9439 15.8565C14.1903 14.2579 15.2271 12.5066 16.0291 10.645C16.1959 10.6919 16.3731 10.737 16.5503 10.7805H16.5589ZM13.1993 16.3707C13.0186 16.5652 12.8327 16.7557 12.6416 16.9422C12.5443 16.8171 12.4471 16.6938 12.348 16.5739C12.5113 16.3828 12.6741 16.1871 12.8362 15.9868C12.9595 16.1101 13.0794 16.2387 13.1993 16.3707ZM13.5224 16.732C14.8867 18.3049 15.9301 20.1297 16.5937 22.1033C16.3157 22.1624 16.0395 22.2284 15.7651 22.3014C15.0265 20.5362 14.0763 18.8673 12.9352 17.3313C13.1367 17.1333 13.3324 16.9329 13.5224 16.7303V16.732ZM16.7448 22.5602C16.7987 22.7339 16.8473 22.9181 16.896 23.097C16.6336 23.1317 16.3748 23.17 16.1212 23.2134C16.0656 23.0588 16.0083 22.9024 15.9475 22.7461C16.2115 22.6766 16.4773 22.6141 16.7448 22.5585V22.5602ZM16.9029 22.5307C19.0339 22.1149 21.2277 22.1421 23.3478 22.6106C23.2905 22.7843 23.2366 22.9667 23.1845 23.1474C21.1538 22.8585 19.0942 22.8352 17.0575 23.0779C17.0089 22.8937 16.9568 22.7113 16.9029 22.5289V22.5307ZM23.5041 22.6453C23.763 22.7061 24.0253 22.7739 24.2789 22.8486C24.2164 22.9997 24.1556 23.1508 24.1052 23.302C23.8568 23.2533 23.6066 23.2099 23.3513 23.17C23.3964 22.9928 23.4486 22.8173 23.5059 22.6436L23.5041 22.6453ZM23.6605 22.1885C24.3521 20.2449 25.414 18.4538 26.7874 16.9144C26.9733 17.1194 27.1644 17.3174 27.3607 17.512C26.2031 19.0199 25.2314 20.6618 24.4665 22.4021C24.2025 22.3222 23.9332 22.2493 23.6622 22.1867L23.6605 22.1885ZM27.8054 17.2757C27.9027 17.1559 27.9982 17.0395 28.0955 16.9283C28.2501 17.102 28.4047 17.2757 28.5611 17.4495L28.3439 17.776C28.1685 17.6128 27.9878 17.446 27.8054 17.2757ZM28.733 17.6475L29.1465 18.1426C29.11 18.219 29.0735 18.2972 29.0353 18.3754L28.5576 17.9671L28.535 17.9463C28.608 17.8455 28.674 17.7448 28.74 17.6475H28.733ZM28.2518 16.4315C28.1007 16.2578 27.9496 16.0632 27.8036 15.8704C27.9426 15.7401 28.0851 15.6133 28.2293 15.4882C28.352 15.6828 28.4736 15.8721 28.5941 16.0562C28.4864 16.1796 28.3717 16.3029 28.2588 16.4315H28.2518ZM24.7341 10.4765C24.6403 10.2437 24.5517 10.0109 24.4683 9.78159C24.642 9.74859 24.8157 9.71384 24.9894 9.67736C25.0902 9.88466 25.1944 10.0949 25.3021 10.308C25.1162 10.3653 24.9286 10.4226 24.741 10.4765H24.7341ZM23.9645 9.65825L23.4955 9.72774C23.4347 9.47932 23.3808 9.23091 23.3322 8.97902L23.7439 8.96338C23.8186 9.19269 23.8933 9.422 23.9714 9.65825H23.9645ZM23.2887 8.72713C23.2887 8.67849 23.2679 8.62985 23.2609 8.58121L23.1723 8.04963L23.4503 8.07743L23.6692 8.7115L23.2887 8.72713ZM17.1461 8.52388C17.1374 8.57078 17.127 8.61769 17.1166 8.66459L16.7518 8.64374L16.9793 8.0201L17.2434 7.99925L17.1461 8.52388ZM16.3244 8.53951V8.54994C16.3244 8.57078 16.3105 8.59163 16.3053 8.61074L15.9579 8.58294L16.281 8.0948L16.4947 8.07048L16.3244 8.53951ZM16.2219 8.85915C16.1542 9.06761 16.0812 9.27781 16.0048 9.48801C15.8467 9.455 15.6904 9.42026 15.534 9.38378C15.6296 9.19269 15.7234 9.00681 15.812 8.82441L16.2219 8.85915ZM15.4385 9.57313C15.6018 9.61135 15.7668 9.64957 15.9336 9.68431C15.8484 9.91188 15.7598 10.1377 15.6608 10.3653C15.4784 10.3097 15.2978 10.2489 15.1188 10.1916L15.4385 9.57313ZM15.0407 10.3305C15.2248 10.3948 15.4107 10.4574 15.5966 10.5147C14.8203 12.313 13.8192 14.0058 12.6173 15.5525C12.4783 15.4187 12.3359 15.2884 12.1917 15.1599C13.1732 13.6537 14.1981 11.9183 15.0441 10.3323L15.0407 10.3305ZM12.1066 15.2936C12.2473 15.4187 12.3863 15.5473 12.5218 15.6775C12.3706 15.8669 12.2178 16.0528 12.0614 16.2352C11.952 16.1066 11.8408 15.9833 11.7296 15.8599C11.8547 15.6758 11.9798 15.4882 12.1066 15.2936ZM11.6097 16.0371C11.7157 16.1535 11.8199 16.2717 11.9242 16.3846C11.7806 16.549 11.6346 16.7106 11.4864 16.8692C11.41 16.7529 11.3353 16.6434 11.2623 16.534C11.377 16.3707 11.4934 16.2091 11.6097 16.0371ZM12.2091 16.732C12.3046 16.8484 12.3967 16.9665 12.4905 17.0794C12.3168 17.2532 12.1274 17.4147 11.9381 17.5763L11.7314 17.2497C11.8912 17.0829 12.051 16.9092 12.2091 16.7285V16.732ZM11.7452 17.75L11.674 17.8108L11.2328 18.1756L11.1286 17.9341L11.5559 17.4408L11.7452 17.75ZM12.1969 17.9967C12.3984 17.8229 12.593 17.6492 12.7841 17.4755C13.9038 18.9854 14.8371 20.625 15.5635 22.3587C15.3064 22.4305 15.0511 22.5087 14.7975 22.5932C14.0192 21.0749 13.0863 19.4281 12.1969 17.9932V17.9967ZM17.1617 23.507C19.1254 23.278 21.1102 23.3008 23.0681 23.5747C23.0195 23.7681 22.9743 23.9627 22.9326 24.1584C21.8104 24.0976 20.6013 24.0663 19.4096 24.0663C18.6852 24.0663 17.9695 24.0785 17.2833 24.1011C17.2503 23.8978 17.2086 23.7015 17.1617 23.5035V23.507ZM24.3067 23.3454C24.3623 23.1995 24.4196 23.0553 24.4804 22.9094C24.7184 22.9806 24.9529 23.0588 25.1875 23.1404L24.9981 23.4931C24.7705 23.4392 24.5412 23.3888 24.3067 23.3419V23.3454ZM25.4272 23.2255L25.4585 23.236L26.0491 23.4583C25.997 23.5313 25.9449 23.606 25.8928 23.6772L25.2552 23.5539C25.3108 23.4427 25.3733 23.3315 25.4272 23.2221V23.2255ZM25.6565 22.7947C26.4434 21.3355 27.3815 19.7495 28.2762 18.358L28.8216 18.8253C28.0824 20.2846 27.2515 21.6957 26.334 23.0501L25.6565 22.7947ZM29.3515 17.7031L28.9936 17.274L29.1812 17.0013L29.4348 17.5103C29.4094 17.5728 29.3816 17.6359 29.3515 17.6996V17.7031ZM29.6103 17.8612L29.7979 18.2381L29.5651 17.9602L29.6103 17.8612ZM28.8737 15.7627C28.7626 15.5889 28.6496 15.4152 28.5367 15.2415L28.9919 14.8663C29.0718 15.04 29.1482 15.2137 29.2194 15.3735L28.8737 15.7627ZM25.6878 10.1811H25.6791C25.5783 9.9831 25.4793 9.78854 25.3855 9.59571L25.9258 9.50191C26.0335 9.65478 26.1429 9.81286 26.2541 9.97963L25.6878 10.1811ZM23.8255 7.8238L23.6883 7.42251L23.9523 7.83944L23.8255 7.8238ZM23.1307 7.75084L23.0282 7.16368L23.1532 7.20363L23.3461 7.763C23.2731 7.75953 23.1984 7.75258 23.1237 7.74737L23.1307 7.75084ZM22.9726 6.7954L22.9309 6.55046L23.0212 6.80929L22.9726 6.7954ZM17.9921 6.64253L18.0963 6.08316C19.4693 5.54819 20.9947 5.55751 22.3611 6.10921L22.4549 6.67553C20.9819 6.39105 19.4692 6.37987 17.9921 6.64253V6.64253ZM17.4102 7.13588L17.3042 7.7022L17.0975 7.71783L17.299 7.16889L17.4102 7.13588ZM17.4449 6.7676L17.5127 6.59389L17.4796 6.7676H17.4449ZM16.5034 7.77516L16.7448 7.40862L16.6163 7.75605L16.5034 7.77516ZM15.0459 9.49322C14.9503 9.6791 14.8496 9.87019 14.7471 10.0613L14.1912 9.85282C14.3041 9.693 14.4135 9.54013 14.523 9.39247L15.0459 9.49322ZM11.8113 15.0365C11.6931 15.2102 11.5785 15.384 11.4638 15.5577L11.1286 15.1547C11.2033 14.9914 11.2814 14.8246 11.3665 14.6526L11.8113 15.0365ZM11.3422 15.7314C11.2449 15.8756 11.1494 16.0163 11.0539 16.1535L10.8593 15.7592C10.9114 15.6306 10.9705 15.4969 11.033 15.3579L11.3422 15.7314ZM11.1286 16.7911C11.1894 16.8814 11.2502 16.9648 11.3023 17.0655L11.2779 17.0916L10.9305 17.4911C10.9045 17.4269 10.8767 17.3626 10.8523 17.3001L11.1286 16.7911ZM10.7221 17.743L10.4927 18.0054L10.6821 17.6475C10.6908 17.6788 10.7029 17.71 10.7186 17.743H10.7221ZM10.9983 18.3684L10.5622 18.7263C10.5535 18.6898 10.5466 18.6551 10.5396 18.6203L10.9149 18.186C10.9375 18.2468 10.967 18.3076 10.9948 18.3684H10.9983ZM10.26 18.9764L10.154 19.065L10.253 18.9504C10.2561 18.9588 10.2585 18.9675 10.26 18.9764V18.9764ZM10.4059 19.4819C10.8885 20.8992 11.6262 22.2162 12.5826 23.368L12.0475 23.5556C10.9084 22.6251 10.1677 21.2947 9.97681 19.8363L10.4059 19.4819ZM13.2931 23.6286L13.8403 23.434L13.9671 23.6199L13.3903 23.7206L13.2931 23.6286ZM12.9717 23.7936L12.692 23.8405L12.9404 23.7536L12.9717 23.7936ZM14.1339 23.3194L14.6811 23.1265C14.7123 23.1144 14.7453 23.1057 14.7766 23.0953C14.8357 23.2099 14.893 23.3246 14.9503 23.4427L14.2937 23.5573L14.1339 23.3194ZM16.5468 24.5128L17.2 24.4867L17.2104 24.5441L17.3025 25.0947C17.1044 25.0774 16.9133 25.0565 16.7275 25.0357L16.5468 24.5128ZM23.0073 24.5979C23.0073 24.5805 23.016 24.5632 23.0195 24.5458C23.2366 24.5562 23.4468 24.5701 23.6553 24.584L23.4625 25.1C23.2887 25.1173 23.0942 25.133 22.9013 25.1469L23.0073 24.5979ZM25.931 24.1202L26.3201 24.1949L25.8597 24.214C25.8841 24.1879 25.9067 24.1567 25.931 24.1254V24.1202ZM26.3392 23.5573L26.8604 23.7554L26.7683 23.8388L26.2089 23.7311L26.3392 23.5573ZM27.2252 23.8891L27.4232 23.9638L27.1939 23.9187L27.2252 23.8891ZM29.8309 19.6817L30.2461 20.0292C30.0197 21.479 29.2517 22.7889 28.0972 23.6946L27.5761 23.5C28.5548 22.3771 29.3202 21.0849 29.8344 19.6869L29.8309 19.6817ZM29.5669 16.9022L29.4209 16.6121L29.5339 16.3967L29.5912 16.7581L29.5669 16.9022ZM29.4696 15.0678C29.4047 14.923 29.337 14.7754 29.2663 14.6248L29.7302 14.2426C29.7684 14.3851 29.7979 14.5241 29.824 14.6596L29.4696 15.0678ZM29.6989 11.2113C30.105 11.9003 30.3497 12.6724 30.4146 13.4696L29.9369 13.8622C29.4437 12.323 28.6462 10.8987 27.5917 9.67389L28.1823 9.46543C28.8105 9.92932 29.3294 10.5253 29.7024 11.2113H29.6989ZM27.1661 9.64783L26.5894 9.85976C26.4921 9.71558 26.3965 9.57313 26.301 9.43589L26.8465 9.34209C26.9542 9.43937 27.0619 9.5436 27.1696 9.65478L27.1661 9.64783ZM25.1996 8.67501L24.9304 8.65938L24.7428 8.36406L24.9026 8.42486L25.1996 8.67501ZM22.2204 5.25279L22.2847 5.64365C20.9581 5.17764 19.5138 5.16847 18.1815 5.6176L18.2527 5.23194C18.807 4.78238 19.504 4.54633 20.2174 4.56661H20.2522C20.9691 4.55306 21.6673 4.79645 22.2204 5.25279V5.25279ZM15.6886 8.28936L15.5149 8.5482L15.5045 8.56731L15.2491 8.57773L15.5392 8.34148L15.6886 8.28936ZM14.1478 9.30908C14.0522 9.44111 13.9567 9.57834 13.8576 9.71732L13.2983 9.50886C13.4042 9.40115 13.5119 9.30039 13.6197 9.20832L14.1478 9.30908ZM10.6439 14.0272L11.0938 14.4129C11.0191 14.5623 10.9496 14.7099 10.8819 14.8541L10.5344 14.4442C10.5657 14.3121 10.6022 14.1749 10.6439 14.0324V14.0272ZM10.7829 16.1709L10.8923 16.3915L10.7429 16.6782L10.7186 16.5305L10.7829 16.1709ZM13.8264 24.075L14.2555 24.0142L14.3302 24.1202L13.8385 24.0889L13.8264 24.075ZM15.1605 24.5493L15.508 24.5719L15.6521 24.7977L15.2873 24.6587L15.1605 24.5493ZM16.8612 25.404L17.3702 25.4526L17.471 26.0641C17.3216 26.0241 17.1791 25.9807 17.0436 25.9321L16.8612 25.404ZM22.7381 26.0988L22.8492 25.4978L23.3443 25.4595L23.155 25.9807C23.0143 26.0207 22.8753 26.0623 22.7294 26.0988H22.7381ZM24.5482 24.8706L24.6889 24.6604L25.0224 24.6466L24.9008 24.7438L24.5482 24.8706ZM30.1471 14.703C30.1471 14.6804 30.1384 14.6561 30.1332 14.6318L30.2617 14.4841L30.1471 14.703ZM30.7846 13.5651L30.6856 13.6815C30.6856 13.6121 30.6856 13.5408 30.6856 13.4696L30.9827 13.2247C30.9264 13.3454 30.8571 13.4596 30.7759 13.5651H30.7846ZM31.7244 10.103C31.969 10.5149 32.065 10.9983 31.9964 11.4725C31.9278 11.9466 31.6988 12.383 31.3475 12.7087C31.4232 11.9679 31.2691 11.2218 30.9061 10.5717C30.5431 9.92149 29.9888 9.3988 29.3185 9.07456C29.7755 8.94967 30.2613 8.98336 30.6967 9.17014C31.1321 9.35691 31.4913 9.68575 31.7158 10.103H31.7244ZM28.2501 9.09888C28.4014 9.08645 28.5536 9.09228 28.7035 9.11625L28.3265 9.24828C28.2605 9.20311 28.1945 9.15968 28.1268 9.11973L28.2501 9.09888ZM27.2947 9.05545L27.0323 9.10062L26.9559 9.03461L27.2947 9.05545ZM20.2556 3.45829C20.6292 3.4562 20.9955 3.56131 21.3111 3.76115C21.6267 3.96098 21.8784 4.24716 22.0362 4.58572C21.4848 4.29149 20.8702 4.13528 20.2452 4.13044C19.6201 4.1256 19.0032 4.27228 18.4472 4.55792C18.612 4.22088 18.8699 3.93814 19.1904 3.74324C19.5109 3.54833 19.8806 3.44944 20.2556 3.45829V3.45829ZM13.5154 8.90953L13.4442 8.9686L13.2062 8.92169L13.5154 8.90953ZM12.0562 8.93906C12.1198 8.93556 12.1836 8.93556 12.2473 8.93906L12.3619 8.96165C12.2977 8.99813 12.2334 9.03808 12.1674 9.08151L11.8095 8.94775C11.8915 8.93968 11.9739 8.93678 12.0562 8.93906V8.93906ZM8.77643 9.88756C8.95951 9.56721 9.22287 9.30007 9.54057 9.11244C9.85827 8.9248 10.2194 8.82314 10.5883 8.81746C10.7899 8.81857 10.9903 8.84721 11.1841 8.90258C10.5118 9.21409 9.9507 9.72359 9.57596 10.3628C9.20123 11.0021 9.03076 11.7406 9.08738 12.4794C8.75016 12.1462 8.53584 11.7085 8.47936 11.2378C8.42289 10.7671 8.52761 10.2911 8.77643 9.88756V9.88756ZM9.4435 13.0058L9.72839 13.249C9.72839 13.3237 9.71971 13.3949 9.71971 13.4679L9.64154 13.3741C9.5617 13.2592 9.49526 13.1357 9.4435 13.0058V13.0058ZM10.1054 14.2513L10.2426 14.4146L10.227 14.4945L10.1054 14.2513ZM8.73994 22.9719C8.55086 22.6489 8.45868 22.2784 8.47439 21.9044C8.49009 21.5305 8.61303 21.169 8.82854 20.863C8.84562 21.4854 9.01241 22.0946 9.3148 22.6388C9.61719 23.1831 10.0463 23.6466 10.5657 23.9899C10.1962 24.0107 9.82838 23.926 9.50513 23.7458C9.18188 23.5656 8.91651 23.2972 8.73994 22.9719V22.9719ZM16.8213 26.1683L16.9099 26.2013L16.9932 26.4393L16.8213 26.1683ZM17.5161 27.3027L17.4675 27.1602C17.5335 27.2002 17.6012 27.2367 17.6725 27.2714L17.7385 27.6727C17.6496 27.5619 17.5728 27.4419 17.5092 27.3148L17.5161 27.3027ZM20.0871 29.8581H20.0663C19.5901 29.8625 19.1265 29.7048 18.7518 29.4108C18.3771 29.1169 18.1135 28.7043 18.0043 28.2408C18.6001 28.6838 19.3256 28.9177 20.068 28.9061H20.108C20.8448 28.9257 21.5672 28.6996 22.1613 28.2633C22.0483 28.7269 21.7804 29.138 21.402 29.4286C21.0235 29.7192 20.5572 29.872 20.0802 29.8615L20.0871 29.8581ZM22.6512 27.3426C22.5934 27.4658 22.5224 27.5823 22.4393 27.6901L22.5122 27.3027C22.5782 27.2697 22.6425 27.2367 22.7051 27.2002L22.6512 27.3426ZM23.2001 26.4445L23.2731 26.2482L23.3478 26.2222L23.2001 26.4445ZM31.4083 23.1856C31.2258 23.5061 30.9564 23.7684 30.6312 23.9424C30.306 24.1164 29.9382 24.1949 29.5703 24.1688C30.0949 23.8383 30.5324 23.3867 30.8462 22.8519C31.16 22.3172 31.3408 21.7149 31.3735 21.0958C31.5766 21.406 31.6871 21.7676 31.692 22.1384C31.6969 22.5091 31.5961 22.8736 31.4013 23.1891L31.4083 23.1856Z" fill="#010101"/>
</svg>
