<svg width="30" height="30" viewBox="0 0 30 30" fill="none" xmlns="http://www.w3.org/2000/svg">
<rect width="30" height="30" rx="4" fill="#1E1E1E"/>
<g clip-path="url(#clip0_968_25246)">
<path d="M15 15.1667C15 14.3268 15.3336 13.5214 15.9275 12.9275C16.5214 12.3336 17.3268 12 18.1667 12C19.0065 12 19.812 12.3336 20.4058 12.9275C20.9997 13.5214 21.3333 14.3268 21.3333 15.1667C21.3333 16.0065 20.9997 16.812 20.4058 17.4058C19.812 17.9997 19.0065 18.3333 18.1667 18.3333C17.3268 18.3333 16.5214 17.9997 15.9275 17.4058C15.3336 16.812 15 16.0065 15 15.1667V15.1667Z" fill="#1ABCFE"/>
<path d="M8.66602 21.4987C8.66602 20.6588 8.99965 19.8534 9.59351 19.2595C10.1874 18.6657 10.9928 18.332 11.8327 18.332H14.9993V21.4987C14.9993 22.3386 14.6657 23.144 14.0719 23.7379C13.478 24.3317 12.6725 24.6654 11.8327 24.6654C10.9928 24.6654 10.1874 24.3317 9.59351 23.7379C8.99965 23.144 8.66602 22.3386 8.66602 21.4987V21.4987Z" fill="#0ACF83"/>
<path d="M15 5.66602V11.9993H18.1667C19.0065 11.9993 19.812 11.6657 20.4058 11.0719C20.9997 10.478 21.3333 9.67253 21.3333 8.83268C21.3333 7.99283 20.9997 7.18738 20.4058 6.59351C19.812 5.99965 19.0065 5.66602 18.1667 5.66602H15Z" fill="#FF7262"/>
<path d="M8.66602 8.83268C8.66602 9.67253 8.99965 10.478 9.59351 11.0719C10.1874 11.6657 10.9928 11.9993 11.8327 11.9993H14.9993V5.66602H11.8327C10.9928 5.66602 10.1874 5.99965 9.59351 6.59351C8.99965 7.18738 8.66602 7.99283 8.66602 8.83268V8.83268Z" fill="#F24E1E"/>
<path d="M8.66602 15.1667C8.66602 16.0065 8.99965 16.812 9.59351 17.4058C10.1874 17.9997 10.9928 18.3333 11.8327 18.3333H14.9993V12H11.8327C10.9928 12 10.1874 12.3336 9.59351 12.9275C8.99965 13.5214 8.66602 14.3268 8.66602 15.1667V15.1667Z" fill="#A259FF"/>
</g>
<defs>
<clipPath id="clip0_968_25246">
<rect width="12.6667" height="19" fill="white" transform="translate(8.66602 5.66602)"/>
</clipPath>
</defs>
</svg>
