<svg width="74" height="33" viewBox="0 0 74 33" fill="none" xmlns="http://www.w3.org/2000/svg">
<rect x="0.5" y="0.5" width="72.7959" height="32" rx="3.5" stroke="#454545"/>
<path d="M25.3592 12.2881V17.5647C25.3592 18.467 26.0974 19.1778 26.9722 19.1778H31.7568V20.7089H26.9722C25.2225 20.7089 23.8281 19.2872 23.8281 17.5647V12.2881H25.3592Z" fill="white"/>
<path d="M35.0369 12.2881V17.5647C35.0369 18.467 35.7751 19.1778 36.65 19.1778H39.7394C40.6416 19.1778 41.3525 18.4396 41.3525 17.5647V12.2881H42.8835V17.5647C42.8835 19.3145 41.4618 20.7089 39.7394 20.7089H36.65C34.9275 20.7089 33.5059 19.2872 33.5059 17.5647V12.2881H35.0369Z" fill="white"/>
<path d="M46.3025 12.2881H46.7673C47.1227 12.2881 47.4781 12.3701 47.7789 12.5341C48.2163 12.7529 48.4624 13.081 48.7084 13.5184C48.7631 13.6004 48.7905 13.6824 48.8178 13.7645C48.8452 13.8191 48.8725 13.9012 48.8998 13.9558C48.9272 14.0105 48.9545 14.0652 48.9818 14.1199L50.841 18.2756C50.8683 18.3303 50.8957 18.3849 50.923 18.4396C50.9503 18.4943 50.9777 18.549 51.005 18.6037C51.0324 18.6583 51.0597 18.713 51.087 18.7677C51.1691 18.9044 51.2511 19.0411 51.3878 19.1231C51.4698 19.1778 51.5792 19.2051 51.6612 19.2051H51.8252C52.0439 19.2051 52.2353 19.0138 52.2353 18.795V12.2881H53.7664V19.0684C53.7664 19.9707 53.0282 20.7089 52.126 20.7089H51.6612C51.3058 20.7089 50.9503 20.6268 50.6496 20.4628C50.2122 20.2441 49.9661 19.916 49.72 19.4785C49.6654 19.3965 49.638 19.3145 49.6107 19.2325C49.5833 19.1778 49.556 19.0958 49.5287 19.0411C49.5013 18.9864 49.474 18.9317 49.4466 18.8771L47.5875 14.7214C47.5602 14.6667 47.5328 14.612 47.5055 14.5573C47.4781 14.5026 47.4508 14.448 47.4235 14.3933C47.3961 14.3386 47.3688 14.2839 47.3414 14.2292C47.2594 14.0925 47.1774 13.9558 47.0407 13.8738C46.9587 13.8191 46.8493 13.7918 46.7673 13.7918H46.6033C46.3845 13.7918 46.1932 13.9832 46.1932 14.2019V20.6815H44.6621V13.9285C44.6621 13.0263 45.4003 12.2881 46.3025 12.2881Z" fill="white"/>
<path d="M64.1824 20.7084L61.7765 14.6935C61.5577 14.1467 61.0656 13.8186 60.4641 13.8186C59.8627 13.8186 59.3705 14.1467 59.1518 14.6935L56.7459 20.7084H55.0781L57.7028 14.1194C58.1676 12.9711 59.2065 12.2603 60.4368 12.2603C61.6671 12.2603 62.7334 12.9711 63.1708 14.1194L65.7955 20.7084H64.1824Z" fill="white"/>
<path d="M11.5525 12.4799C12.0173 10.8395 12.9742 9.49987 14.1772 8.48828C11.4705 9.17178 9.17395 11.2223 8.3264 14.093C7.06875 18.4128 9.55671 22.9239 13.8765 24.1815C16.5558 24.9744 19.3171 24.2909 21.3403 22.6505C20.0006 22.9786 18.5243 22.9786 17.1026 22.5685C12.7555 21.3108 10.2949 16.7997 11.5525 12.4799Z" fill="#CC775C"/>
<path d="M17.8415 21.4466C18.1696 19.5875 18.4703 19.3141 20.3021 18.986C18.443 18.6579 18.1696 18.3572 17.8415 16.5254C17.5134 18.3845 17.2126 18.6579 15.3809 18.986C17.24 19.3414 17.5134 19.6148 17.8415 21.4466Z" fill="#CC775C"/>
<path d="M19.6737 18.5764C19.8377 17.7288 19.9471 17.6195 20.7946 17.4554C19.9471 17.2914 19.8377 17.182 19.6737 16.3345C19.5096 17.182 19.4003 17.2914 18.5527 17.4554C19.4003 17.6195 19.537 17.7288 19.6737 18.5764Z" fill="#CC775C"/>
</svg>
