<svg width="66" height="30" viewBox="0 0 66 30" fill="none" xmlns="http://www.w3.org/2000/svg">
<rect width="66" height="30" rx="4" fill="white"/>
<g clip-path="url(#clip0_168_3932)">
<path d="M19.4861 11.7583V10.2215C19.4861 9.66359 19.1448 9.16885 18.6221 8.9478L8.96875 5.02148V5.87412L17.5767 9.37938C17.8754 9.49517 17.8754 9.91622 17.5767 10.032L8.96875 13.5373V16.9583L14.1528 14.8425L17.5661 16.232C17.8647 16.3478 17.8647 16.7689 17.5661 16.8846L8.96875 20.3899V25.811L18.6221 21.8846C19.1448 21.6741 19.4861 21.1689 19.4861 20.611V17.0846C19.4861 16.5267 19.1448 16.032 18.6221 15.811L15.1981 14.4215L18.6221 13.032C19.1448 12.8215 19.4861 12.3162 19.4861 11.7583Z" fill="black"/>
<path d="M24.3924 12.6953L25.907 18.5164L27.603 12.6953H29.2244L30.8244 18.5164L32.403 12.6953H33.5977L31.5604 19.7164H30.0457L28.371 13.6637L26.6324 19.7164H25.0964L23.123 12.6953H24.3924Z" fill="black"/>
<path d="M35.4226 16.5471C35.4652 17.1261 35.5292 17.4208 35.7212 17.7892C36.0732 18.4524 36.8732 18.8839 37.6732 18.8839C38.6439 18.8839 39.2732 18.4313 39.5399 17.5366H40.8626C40.5319 19.0524 39.3692 19.8945 37.6519 19.8945C35.5079 19.8945 34.1426 18.4418 34.1426 16.1682C34.1426 13.9471 35.5079 12.4629 37.5452 12.4629C39.7106 12.4629 40.8839 13.9155 40.8839 16.526H35.4226V16.5471ZM39.2412 14.3997C38.9106 13.8418 38.2386 13.505 37.5452 13.505C36.3506 13.505 35.5932 14.2524 35.4439 15.5997H39.5826C39.5186 14.9787 39.4332 14.6839 39.2412 14.3997Z" fill="black"/>
<path d="M42.0771 10.0215H43.2931V13.7478C43.7944 12.9162 44.4877 12.5267 45.5011 12.5267C47.2611 12.5267 48.5197 14.0425 48.5197 16.211C48.5197 18.3794 47.3251 19.8531 45.5117 19.8531C44.5197 19.8531 43.8691 19.4636 43.2397 18.5478V19.7057H42.0664V10.0215H42.0771ZM43.3144 16.1794C43.3144 17.7162 44.1997 18.8531 45.3517 18.8531C46.4611 18.8531 47.1971 17.8215 47.1971 16.2215C47.1971 14.5478 46.4611 13.5057 45.3091 13.5057C44.1571 13.5057 43.3144 14.6004 43.3144 16.1794Z" fill="black"/>
<path d="M50.7281 16.7581C50.7068 18.0002 51.5068 18.8107 52.7654 18.8107C53.8961 18.8107 54.7174 18.1054 54.7174 17.137C54.7174 16.1476 53.9388 15.537 52.6801 15.537C52.5521 15.537 52.4454 15.537 52.2641 15.5581V14.4844C52.4134 14.4844 52.4988 14.4844 52.5841 14.4844C53.8854 14.4844 54.6428 13.9265 54.6428 12.9265C54.6428 11.9897 53.9068 11.3897 52.7974 11.3897C51.6028 11.3897 50.9094 12.0949 50.8668 13.337H49.5654C49.6508 11.4107 50.8454 10.2949 52.8188 10.2949C54.6428 10.2949 55.9228 11.3265 55.9228 12.8212C55.9228 13.8107 55.2081 14.7265 54.2481 14.9791C55.4214 15.2739 56.0508 16.0528 56.0508 17.2212C56.0508 18.8002 54.6854 19.916 52.7548 19.916C50.7388 19.916 49.3734 18.6318 49.3948 16.7686C49.3841 16.7581 50.7281 16.7581 50.7281 16.7581Z" fill="black"/>
</g>
<defs>
<clipPath id="clip0_168_3932">
<rect width="48" height="22" fill="white" transform="translate(9 5)"/>
</clipPath>
</defs>
</svg>
