<svg width="84" height="24" viewBox="0 0 84 24" fill="none" xmlns="http://www.w3.org/2000/svg">
<rect x="0.5" y="1" width="83" height="22" rx="3.5" stroke="#404040"/>
<path d="M4.42 12.3C4.42 11.476 4.604 10.74 4.972 10.092C5.348 9.436 5.856 8.928 6.496 8.568C7.144 8.2 7.868 8.016 8.668 8.016C9.604 8.016 10.424 8.256 11.128 8.736C11.832 9.216 12.324 9.88 12.604 10.728H10.672C10.48 10.328 10.208 10.028 9.856 9.828C9.512 9.628 9.112 9.528 8.656 9.528C8.168 9.528 7.732 9.644 7.348 9.876C6.972 10.1 6.676 10.42 6.46 10.836C6.252 11.252 6.148 11.74 6.148 12.3C6.148 12.852 6.252 13.34 6.46 13.764C6.676 14.18 6.972 14.504 7.348 14.736C7.732 14.96 8.168 15.072 8.656 15.072C9.112 15.072 9.512 14.972 9.856 14.772C10.208 14.564 10.48 14.26 10.672 13.86H12.604C12.324 14.716 11.832 15.384 11.128 15.864C10.432 16.336 9.612 16.572 8.668 16.572C7.868 16.572 7.144 16.392 6.496 16.032C5.856 15.664 5.348 15.156 4.972 14.508C4.604 13.86 4.42 13.124 4.42 12.3ZM16.9909 16.608C16.3509 16.608 15.7749 16.468 15.2629 16.188C14.7509 15.9 14.3469 15.496 14.0509 14.976C13.7629 14.456 13.6189 13.856 13.6189 13.176C13.6189 12.496 13.7669 11.896 14.0629 11.376C14.3669 10.856 14.7789 10.456 15.2989 10.176C15.8189 9.888 16.3989 9.744 17.0389 9.744C17.6789 9.744 18.2589 9.888 18.7789 10.176C19.2989 10.456 19.7069 10.856 20.0029 11.376C20.3069 11.896 20.4589 12.496 20.4589 13.176C20.4589 13.856 20.3029 14.456 19.9909 14.976C19.6869 15.496 19.2709 15.9 18.7429 16.188C18.2229 16.468 17.6389 16.608 16.9909 16.608ZM16.9909 15.144C17.2949 15.144 17.5789 15.072 17.8429 14.928C18.1149 14.776 18.3309 14.552 18.4909 14.256C18.6509 13.96 18.7309 13.6 18.7309 13.176C18.7309 12.544 18.5629 12.06 18.2269 11.724C17.8989 11.38 17.4949 11.208 17.0149 11.208C16.5349 11.208 16.1309 11.38 15.8029 11.724C15.4829 12.06 15.3229 12.544 15.3229 13.176C15.3229 13.808 15.4789 14.296 15.7909 14.64C16.1109 14.976 16.5109 15.144 16.9909 15.144ZM25.3753 9.756C26.1673 9.756 26.8073 10.008 27.2953 10.512C27.7833 11.008 28.0273 11.704 28.0273 12.6V16.5H26.3473V12.828C26.3473 12.3 26.2153 11.896 25.9513 11.616C25.6873 11.328 25.3273 11.184 24.8713 11.184C24.4073 11.184 24.0393 11.328 23.7673 11.616C23.5033 11.896 23.3713 12.3 23.3713 12.828V16.5H21.6913V9.852H23.3713V10.68C23.5953 10.392 23.8793 10.168 24.2233 10.008C24.5753 9.84 24.9593 9.756 25.3753 9.756ZM32.6729 11.232H31.5089V16.5H29.8049V11.232H29.0489V9.852H29.8049V9.516C29.8049 8.7 30.0369 8.1 30.5009 7.716C30.9649 7.332 31.6649 7.152 32.6009 7.176V8.592C32.1929 8.584 31.9089 8.652 31.7489 8.796C31.5889 8.94 31.5089 9.2 31.5089 9.576V9.852H32.6729V11.232ZM34.6136 9.06C34.3176 9.06 34.0696 8.968 33.8696 8.784C33.6776 8.592 33.5816 8.356 33.5816 8.076C33.5816 7.796 33.6776 7.564 33.8696 7.38C34.0696 7.188 34.3176 7.092 34.6136 7.092C34.9096 7.092 35.1536 7.188 35.3456 7.38C35.5456 7.564 35.6456 7.796 35.6456 8.076C35.6456 8.356 35.5456 8.592 35.3456 8.784C35.1536 8.968 34.9096 9.06 34.6136 9.06ZM35.4416 9.852V16.5H33.7616V9.852H35.4416ZM36.6694 13.152C36.6694 12.48 36.8014 11.884 37.0654 11.364C37.3374 10.844 37.7054 10.444 38.1694 10.164C38.6334 9.884 39.1494 9.744 39.7174 9.744C40.1494 9.744 40.5614 9.84 40.9534 10.032C41.3454 10.216 41.6574 10.464 41.8894 10.776V7.62H43.5934V16.5H41.8894V15.516C41.6814 15.844 41.3894 16.108 41.0134 16.308C40.6374 16.508 40.2014 16.608 39.7054 16.608C39.1454 16.608 38.6334 16.464 38.1694 16.176C37.7054 15.888 37.3374 15.484 37.0654 14.964C36.8014 14.436 36.6694 13.832 36.6694 13.152ZM41.9014 13.176C41.9014 12.768 41.8214 12.42 41.6614 12.132C41.5014 11.836 41.2854 11.612 41.0134 11.46C40.7414 11.3 40.4494 11.22 40.1374 11.22C39.8254 11.22 39.5374 11.296 39.2734 11.448C39.0094 11.6 38.7934 11.824 38.6254 12.12C38.4654 12.408 38.3854 12.752 38.3854 13.152C38.3854 13.552 38.4654 13.904 38.6254 14.208C38.7934 14.504 39.0094 14.732 39.2734 14.892C39.5454 15.052 39.8334 15.132 40.1374 15.132C40.4494 15.132 40.7414 15.056 41.0134 14.904C41.2854 14.744 41.5014 14.52 41.6614 14.232C41.8214 13.936 41.9014 13.584 41.9014 13.176ZM51.4143 13.032C51.4143 13.272 51.3983 13.488 51.3663 13.68H46.5063C46.5463 14.16 46.7143 14.536 47.0103 14.808C47.3063 15.08 47.6703 15.216 48.1023 15.216C48.7263 15.216 49.1703 14.948 49.4343 14.412H51.2463C51.0543 15.052 50.6863 15.58 50.1423 15.996C49.5983 16.404 48.9303 16.608 48.1383 16.608C47.4983 16.608 46.9223 16.468 46.4103 16.188C45.9063 15.9 45.5103 15.496 45.2223 14.976C44.9423 14.456 44.8022 13.856 44.8022 13.176C44.8022 12.488 44.9423 11.884 45.2223 11.364C45.5023 10.844 45.8943 10.444 46.3983 10.164C46.9023 9.884 47.4823 9.744 48.1383 9.744C48.7703 9.744 49.3343 9.88 49.8303 10.152C50.3343 10.424 50.7223 10.812 50.9943 11.316C51.2743 11.812 51.4143 12.384 51.4143 13.032ZM49.6743 12.552C49.6663 12.12 49.5103 11.776 49.2063 11.52C48.9023 11.256 48.5303 11.124 48.0903 11.124C47.6743 11.124 47.3223 11.252 47.0343 11.508C46.7543 11.756 46.5823 12.104 46.5183 12.552H49.6743ZM56.3245 9.756C57.1165 9.756 57.7565 10.008 58.2445 10.512C58.7325 11.008 58.9765 11.704 58.9765 12.6V16.5H57.2965V12.828C57.2965 12.3 57.1645 11.896 56.9005 11.616C56.6365 11.328 56.2765 11.184 55.8205 11.184C55.3565 11.184 54.9885 11.328 54.7165 11.616C54.4525 11.896 54.3205 12.3 54.3205 12.828V16.5H52.6405V9.852H54.3205V10.68C54.5445 10.392 54.8285 10.168 55.1725 10.008C55.5245 9.84 55.9085 9.756 56.3245 9.756ZM62.5301 11.232V14.448C62.5301 14.672 62.5821 14.836 62.6861 14.94C62.7981 15.036 62.9821 15.084 63.2381 15.084H64.0181V16.5H62.9621C61.5461 16.5 60.8381 15.812 60.8381 14.436V11.232H60.0461V9.852H60.8381V8.208H62.5301V9.852H64.0181V11.232H62.5301ZM66.0784 9.06C65.7824 9.06 65.5344 8.968 65.3344 8.784C65.1424 8.592 65.0464 8.356 65.0464 8.076C65.0464 7.796 65.1424 7.564 65.3344 7.38C65.5344 7.188 65.7824 7.092 66.0784 7.092C66.3744 7.092 66.6184 7.188 66.8104 7.38C67.0104 7.564 67.1104 7.796 67.1104 8.076C67.1104 8.356 67.0104 8.592 66.8104 8.784C66.6184 8.968 66.3744 9.06 66.0784 9.06ZM66.9064 9.852V16.5H65.2264V9.852H66.9064ZM68.1343 13.152C68.1343 12.48 68.2663 11.884 68.5303 11.364C68.8023 10.844 69.1663 10.444 69.6223 10.164C70.0863 9.884 70.6023 9.744 71.1703 9.744C71.6663 9.744 72.0983 9.844 72.4663 10.044C72.8423 10.244 73.1423 10.496 73.3663 10.8V9.852H75.0583V16.5H73.3663V15.528C73.1503 15.84 72.8503 16.1 72.4663 16.308C72.0903 16.508 71.6543 16.608 71.1583 16.608C70.5983 16.608 70.0863 16.464 69.6223 16.176C69.1663 15.888 68.8023 15.484 68.5303 14.964C68.2663 14.436 68.1343 13.832 68.1343 13.152ZM73.3663 13.176C73.3663 12.768 73.2863 12.42 73.1263 12.132C72.9663 11.836 72.7503 11.612 72.4783 11.46C72.2063 11.3 71.9143 11.22 71.6023 11.22C71.2903 11.22 71.0023 11.296 70.7383 11.448C70.4743 11.6 70.2583 11.824 70.0903 12.12C69.9303 12.408 69.8503 12.752 69.8503 13.152C69.8503 13.552 69.9303 13.904 70.0903 14.208C70.2583 14.504 70.4743 14.732 70.7383 14.892C71.0103 15.052 71.2983 15.132 71.6023 15.132C71.9143 15.132 72.2063 15.056 72.4783 14.904C72.7503 14.744 72.9663 14.52 73.1263 14.232C73.2863 13.936 73.3663 13.584 73.3663 13.176ZM78.3791 7.62V16.5H76.6991V7.62H78.3791Z" fill="white"/>
</svg>
